<svg width="16" height="30" viewBox="0 0 16 30" fill="none" xmlns="http://www.w3.org/2000/svg">
<path d="M0.906723 15.978H4.19521V29.5161C4.19521 29.7834 4.41179 30 4.67908 30H10.2548C10.5221 30 10.7387 29.7834 10.7387 29.5161V16.0418H14.5191C14.7649 16.0418 14.9717 15.8573 14.9998 15.6132L15.5739 10.6291C15.5897 10.492 15.5462 10.3546 15.4545 10.2518C15.3627 10.1488 15.2312 10.0899 15.0933 10.0899H10.7389V6.96561C10.7389 6.02381 11.246 5.54623 12.2462 5.54623C12.3888 5.54623 15.0933 5.54623 15.0933 5.54623C15.3606 5.54623 15.5772 5.32955 15.5772 5.06235V0.487452C15.5772 0.220161 15.3606 0.00358065 15.0933 0.00358065H11.1696C11.1419 0.00222581 11.0805 0 10.9899 0C10.3091 0 7.94269 0.133645 6.0734 1.85332C4.00224 3.759 4.29014 6.04074 4.35895 6.43636V10.0898H0.906723C0.639432 10.0898 0.422852 10.3064 0.422852 10.5736V15.494C0.422852 15.7613 0.639432 15.978 0.906723 15.978Z" fill="white"/>
</svg>
