<svg width="20" height="20" viewBox="0 0 20 20" fill="none" xmlns="http://www.w3.org/2000/svg">
<g clip-path="url(#clip0_630_121)">
<path d="M2.568 0.0012207H17.4332C18.8455 0.0012207 20 1.15615 20 2.56842V17.4336C20 18.8455 18.8455 19.9996 17.4332 19.9996H2.568C1.15573 19.9996 0 18.8454 0 17.4336V2.56842C0 1.15615 1.15573 0.0012207 2.568 0.0012207ZM14.5697 2.22235C14.0739 2.22235 13.6694 2.62842 13.6694 3.12402V5.27829C13.6694 5.77409 14.0739 6.17922 14.5697 6.17922H16.8299C17.325 6.17922 17.7303 5.77409 17.7303 5.27829V3.12402C17.7303 2.62842 17.325 2.22235 16.8299 2.22235H14.5697ZM17.7389 8.45829H15.9792C16.1461 9.00329 16.2365 9.57802 16.2365 10.1756C16.2365 13.501 13.4521 16.1982 10.0188 16.1982C6.58633 16.1982 3.80187 13.501 3.80187 10.1756C3.80187 9.57802 3.8932 9.00329 4.05927 8.45829H2.22333V16.9071C2.22333 17.3446 2.5806 17.7006 3.01773 17.7006H16.9449C17.3824 17.7006 17.7389 17.3446 17.7389 16.9071V8.45829ZM10.0189 6.06562C7.80153 6.06562 6.00287 7.80749 6.00287 9.95815C6.00287 12.1066 7.80153 13.8498 10.0189 13.8498C12.2374 13.8498 14.0361 12.1066 14.0361 9.95815C14.0361 7.80742 12.2374 6.06562 10.0189 6.06562Z" fill="white"/>
</g>
<defs>
<clipPath id="clip0_630_121">
<rect width="20" height="20" fill="white"/>
</clipPath>
</defs>
</svg>
