<svg width="26" height="26" viewBox="0 0 26 26" fill="none" xmlns="http://www.w3.org/2000/svg">
<g clip-path="url(#clip0_630_76)">
<path d="M6.0521 8.3645H0.832563C0.600911 8.3645 0.413208 8.55229 0.413208 8.78386V25.552C0.413208 25.7837 0.600911 25.9714 0.832563 25.9714H6.0521C6.28376 25.9714 6.47146 25.7837 6.47146 25.552V8.78386C6.47146 8.55229 6.28376 8.3645 6.0521 8.3645Z" fill="white"/>
<path d="M3.44425 0.0285645C1.54507 0.0285645 0 1.57196 0 3.46904C0 5.36695 1.54507 6.91093 3.44425 6.91093C5.34191 6.91093 6.88572 5.36687 6.88572 3.46904C6.88581 1.57196 5.34191 0.0285645 3.44425 0.0285645Z" fill="white"/>
<path d="M19.3283 7.94775C17.232 7.94775 15.6823 8.84895 14.7424 9.87293V8.78386C14.7424 8.5523 14.5547 8.36451 14.323 8.36451H9.32438C9.09273 8.36451 8.90503 8.5523 8.90503 8.78386V25.552C8.90503 25.7837 9.09273 25.9714 9.32438 25.9714H14.5325C14.7642 25.9714 14.9519 25.7837 14.9519 25.552V17.2557C14.9519 14.46 15.7112 13.3709 17.6601 13.3709C19.7825 13.3709 19.9512 15.1169 19.9512 17.3995V25.5521C19.9512 25.7838 20.1389 25.9715 20.3705 25.9715H25.5806C25.8122 25.9715 25.9999 25.7838 25.9999 25.5521V16.3545C25.9999 12.1974 25.2073 7.94775 19.3283 7.94775Z" fill="white"/>
</g>
<defs>
<clipPath id="clip0_630_76">
<rect width="26" height="26" fill="white"/>
</clipPath>
</defs>
</svg>
