<svg width="26" height="26" viewBox="0 0 26 26" fill="none" xmlns="http://www.w3.org/2000/svg">
<g clip-path="url(#clip0_630_58)">
<path d="M25.4106 4.81335C25.0022 4.99451 24.5822 5.14741 24.1532 5.27154C24.6612 4.69702 25.0485 4.02102 25.2849 3.28128C25.3379 3.11547 25.283 2.93397 25.1467 2.82553C25.0106 2.717 24.8214 2.704 24.6716 2.79282C23.7603 3.33328 22.7772 3.72169 21.7463 3.94881C20.7079 2.93414 19.2975 2.35669 17.8395 2.35669C14.7619 2.35669 12.258 4.86049 12.258 7.93805C12.258 8.18043 12.2733 8.42148 12.3037 8.65917C8.48464 8.32385 4.93413 6.44674 2.496 3.45599C2.40911 3.34939 2.27525 3.29193 2.13821 3.30292C2.00108 3.31366 1.87787 3.39099 1.8086 3.50983C1.31409 4.35835 1.05267 5.32882 1.05267 6.31624C1.05267 7.66111 1.53283 8.93712 2.38102 9.93417C2.12311 9.84485 1.87284 9.73322 1.63398 9.60062C1.50574 9.52925 1.34923 9.53034 1.22183 9.60339C1.09435 9.67644 1.01442 9.8108 1.01107 9.95766C1.01048 9.9824 1.01048 10.0071 1.01048 10.0322C1.01048 12.0397 2.09091 13.847 3.74274 14.8321C3.60083 14.8179 3.45901 14.7973 3.31811 14.7704C3.17284 14.7427 3.02347 14.7936 2.92551 14.9044C2.82738 15.0151 2.79492 15.1694 2.84013 15.3103C3.45154 17.2192 5.02572 18.6233 6.92875 19.0514C5.35038 20.0399 3.5454 20.5578 1.65058 20.5578C1.25522 20.5578 0.857583 20.5345 0.468422 20.4885C0.275099 20.4655 0.0902476 20.5797 0.0244089 20.7635C-0.0414298 20.9474 0.0283508 21.1525 0.192822 21.2579C2.62701 22.8187 5.44163 23.6436 8.33225 23.6436C14.0148 23.6436 17.5697 20.964 19.5512 18.716C22.022 15.9129 23.4391 12.2027 23.4391 8.5368C23.4391 8.38365 23.4367 8.229 23.432 8.07484C24.4069 7.34038 25.2462 6.45152 25.9291 5.42989C26.0329 5.27473 26.0216 5.06966 25.9015 4.92683C25.7814 4.78391 25.5814 4.7377 25.4106 4.81335Z" fill="white"/>
</g>
<defs>
<clipPath id="clip0_630_58">
<rect width="26" height="26" fill="white"/>
</clipPath>
</defs>
</svg>
