<svg width="30" height="30" viewBox="0 0 30 30" fill="none" xmlns="http://www.w3.org/2000/svg">
<g clip-path="url(#clip0_630_119)">
<path d="M26.703 18.4471C26.703 18.4471 29.1285 20.8426 29.7285 21.9511C29.7402 21.9671 29.7493 21.9848 29.7555 22.0036C30 22.4131 30.06 22.7341 29.94 22.9711C29.7375 23.3626 29.052 23.5591 28.8195 23.5756H24.5325C24.234 23.5756 23.613 23.4976 22.857 22.9756C22.2795 22.5721 21.705 21.9076 21.1485 21.2581C20.3175 20.2936 19.599 19.4566 18.8715 19.4566C18.7796 19.4564 18.6884 19.4716 18.6015 19.5016C18.051 19.6756 17.352 20.4601 17.352 22.5496C17.352 23.2036 16.836 23.5756 16.4745 23.5756H14.511C13.842 23.5756 10.359 23.3416 7.27051 20.0851C3.48601 16.0981 0.087013 8.10006 0.054013 8.02956C-0.157487 7.51206 0.286513 7.23006 0.766513 7.23006H5.09551C5.67601 7.23006 5.86501 7.58106 5.99701 7.89606C6.15001 8.25756 6.71701 9.70356 7.64701 11.3281C9.15301 13.9711 10.0785 15.0466 10.818 15.0466C10.9569 15.047 11.0935 15.0108 11.214 14.9416C12.18 14.4106 12 10.9606 11.955 10.2496C11.955 10.1116 11.9535 8.70906 11.4585 8.03106C11.1045 7.54506 10.5015 7.35606 10.137 7.28706C10.2345 7.14606 10.4415 6.93006 10.707 6.80256C11.3685 6.47256 12.564 6.42456 13.7505 6.42456H14.409C15.696 6.44256 16.029 6.52506 16.497 6.64356C17.439 6.86856 17.457 7.47906 17.3745 9.55806C17.3505 10.1521 17.325 10.8211 17.325 11.6086C17.325 11.7766 17.3175 11.9641 17.3175 12.1546C17.289 13.2211 17.2515 14.4226 18.0045 14.9161C18.1022 14.9769 18.2149 15.0091 18.33 15.0091C18.591 15.0091 19.3725 15.0091 21.492 11.3716C22.422 9.76506 23.142 7.87056 23.1915 7.72806C23.2335 7.64856 23.3595 7.42506 23.5125 7.33506C23.6214 7.27715 23.7433 7.24823 23.8665 7.25106H28.959C29.514 7.25106 29.8905 7.33506 29.964 7.54506C30.087 7.88556 29.94 8.92506 27.615 12.0691C27.2235 12.5926 26.88 13.0456 26.5785 13.4416C24.471 16.2076 24.471 16.3471 26.703 18.4471Z" fill="white"/>
</g>
<defs>
<clipPath id="clip0_630_119">
<rect width="30" height="30" fill="white"/>
</clipPath>
</defs>
</svg>
