<svg class="locations-map__img map-europe" xmlns="http://www.w3.org/2000/svg" xmlns:xlink="http://www.w3.org/1999/xlink" width="715.999" height="620" viewBox="0 0 715.999 620">
  <defs>
    <clipPath id="clip-path">
      <path id="Clip_6" data-name="Clip 6" d="M0,0H311.607V354.655H0Z" fill="#131630"/>
    </clipPath>
    <clipPath id="clip-path-2">
      <path id="Clip_9" data-name="Clip 9" d="M0,0H193.393V257.467H0Z" fill="none"/>
    </clipPath>
  </defs>
  <g id="Map_europe" data-name="Map europe" transform="translate(-0.001)">
    <path id="Fill_1" data-name="Fill 1" data-country="spain" d="M42.182,277.485h0c-2.133,0-3.82-1.57-5.451-3.089-.587-.547-1.195-1.112-1.807-1.586a13.307,13.307,0,0,0-2.936-1.707,6.467,6.467,0,0,1-2.491-1.657,12.489,12.489,0,0,1-2.126-4.613c-.979-3.353-1.953-6.242-2.812-8.791-.9-2.661-1.672-4.959-2.092-6.767-.359-1.533.21-1.954.761-2.362.69-.511,1.4-1.039.269-3.772-.11-.261-.23-.551-.345-.833a32.682,32.682,0,0,0-6.277-10.551,20.445,20.445,0,0,0-6.5-4.631,24.208,24.208,0,0,0-9.758-1.974,30.147,30.147,0,0,0,.785-9.619,7.74,7.74,0,0,0-.858-2.356l-.07-.141a1.7,1.7,0,0,0-.274-.472A1.918,1.918,0,0,1,.81,212.1a8.862,8.862,0,0,0,3.139-3.654,7.558,7.558,0,0,1,1.716-2.383,8.615,8.615,0,0,1,1.991-1.168l.069-.032.007,0a8.775,8.775,0,0,0,2.935-1.935,3.145,3.145,0,0,0,1.079-3.144,1.832,1.832,0,0,1,1.159-.432,7.9,7.9,0,0,1,2.912.947,3.32,3.32,0,0,0,1.406.355,2.236,2.236,0,0,0,.948-.207,3.7,3.7,0,0,0,1.764-2.622l.007-.023a3.474,3.474,0,0,1,.583-1.307c1.426-1.011,1.365-1.987,1.2-2.479a2.258,2.258,0,0,0-2.329-1.374c-1.132,0-1.92-.055-2.526-.785-.483-.576-1.363-3.556-1.946-5.528l-.114-.386c-.342-1.255-.709-2.471-1.005-3.338-.293-.757-.046-1.133.711-2.11a8.968,8.968,0,0,0,1.325-2.108,14.372,14.372,0,0,0,.515-1.524,3.968,3.968,0,0,1,1.1-1.816,5.556,5.556,0,0,1,2.182-1.178,9.761,9.761,0,0,0,4.145-2.479,6.8,6.8,0,0,0,1.667-2.958l.025-.085a2.809,2.809,0,0,1,.907-1.616c1.661-1.664,1.69-2.975,1.423-3.782-.419-1.206-1.615-1.941-3.556-2.184-1.133-.17-1.229-.523-1.545-1.693a6.359,6.359,0,0,0-1.128-2.552c-.709-.953-.833-2.9-.368-5.792.045-.229.092-.417.137-.6l.01-.04a2.8,2.8,0,0,0-.981-3.387c-.325-.256-.433-.653-.628-1.373l-.034-.124a9.823,9.823,0,0,0-.957-2.625,26.243,26.243,0,0,0,5.7.9l.083.007.466.035a12.86,12.86,0,0,1,1.863.211c.265.072.538.147.785.22a6.638,6.638,0,0,0,1.883.389,2.3,2.3,0,0,0,1.158-.29,2.43,2.43,0,0,0,1.128-1.62c.273-1.142,1.806-3.126,2.82-4.439l.638-.862C36.153,136,38.445,133,37.3,129.84a7.315,7.315,0,0,0-1.187-2.051l-.064-.084-.026-.033a2.1,2.1,0,0,1-.514-2.249c.172-.838.416-.957,2.011-.981l.163,0a6.052,6.052,0,0,0,2.436-.413,3.843,3.843,0,0,0,2.354-2.012,4.074,4.074,0,0,0-.515-3.138c-.249-.475-.186-.629.319-1.377a4.705,4.705,0,0,0,1.03-2.773,22.541,22.541,0,0,1,1.913-8.049c1.447-2.9,1.119-4.34.024-6.945a2.319,2.319,0,0,1-.147-.442c.094-.013.193-.019.3-.025.087-.005.176-.011.266-.02.272,0,.6-.023.947-.047l.083-.006c2.433-.245,2.99-1.616,3.58-3.067.065-.146.13-.3.2-.455.139-.326.284-.662.465-1.041.569-1.123,1.148-1.581,2-1.581a4.313,4.313,0,0,1,1.117.182,2.96,2.96,0,0,0,.707.084c1.369,0,2.839-.871,4.394-1.793l.1-.059.213-.125c.64-.376,1.3-.765,1.921-1.052a7.412,7.412,0,0,0,3.236-3.19,6.981,6.981,0,0,1,1.153-1.5c2.1-1.809,1.79-2.577.27-5.227a6.313,6.313,0,0,0-4.292-2.8l-.118-.032a6.578,6.578,0,0,1-2.089-.827c-.8-.578.114-2.8.662-4.123l.109-.271c.207-.516.4-1,.528-1.422a2.612,2.612,0,0,0-2.825-3.874c-.38,0-.769.023-1.1.045a2.5,2.5,0,0,1-.275.017.648.648,0,0,1-.288-.041.589.589,0,0,1-.136-.161c-.02-.028-.04-.058-.061-.085a3.173,3.173,0,0,0-3.113-1.582c-.135,0-.276,0-.418.012-.274.018-.542.028-.8.028a6.251,6.251,0,0,1-4.476-1.573,3.545,3.545,0,0,0-2.238-.854,2.815,2.815,0,0,0-1.1.218c-.791.332-1.781,1.172-2.012,3.286a1.6,1.6,0,0,1-.936.2,16.212,16.212,0,0,1-3.331-.543l-.491-.1c-.446-.1-.868-.174-1.275-.246l-.032-.006c-.962-.168-1.956-.343-2.174-.753-.73-1.463-2.937-1.959-4.884-2.4l-.046-.01-.3-.065h0a8.29,8.29,0,0,1-.826-.2c-.149-.025-.2-.076-.344-.246a2.3,2.3,0,0,0-1.683-.768,6.606,6.606,0,0,0-2.756.89,4.39,4.39,0,0,1-1.846.593c-.889,0-1.351-.693-2.19-1.952l-.01-.016A5.409,5.409,0,0,1,20.8,59.436l.414-.228.008,0,0,0c.292-.161.569-.312.85-.477a2.762,2.762,0,0,0,1.4-1.865c.242-1.31-.664-2.45-1.325-3.283l-.024-.03-.116-.146a3.816,3.816,0,0,1-.325-.444,2.007,2.007,0,0,1-.2-.515A2.5,2.5,0,0,0,20.159,50.7a2.2,2.2,0,0,0-.775-.136,4.876,4.876,0,0,0-2.192.7,3.153,3.153,0,0,1-1.524.449A4.2,4.2,0,0,1,14,51.247l-.018-.008a6.137,6.137,0,0,0-1.57-.516,5.174,5.174,0,0,0-.776-.057,12.778,12.778,0,0,0-4.988,1.382c-.375.169-.862.366-1.425.593l-.022.009-.514.208-.323.131c-1.108.45-2.359.958-3.65,1.537A21.84,21.84,0,0,1,2.037,49.5a11.975,11.975,0,0,1,4.381-4.359c.685-.455,1.137-.755,1.137-.966,0-.266-.631-.383-1.3-.506-.7-.128-1.486-.274-1.711-.614a.383.383,0,0,1-.054-.3c.193-1.016,4.032-3.047,4.071-3.067l-.016-.009c-.612-.383-3.662-2.344-3.662-3.28,0-.424.591-.858,1.275-1.359.933-.685,2.094-1.536,2.208-2.714a.685.685,0,0,0-.1-.532.373.373,0,0,0-.293-.109,4.449,4.449,0,0,0-1.477.538l-.227.108a5.441,5.441,0,0,1-2.038.645,1.121,1.121,0,0,1-.766-.257c-.94-.811.682-3.466,1.867-5.4a6.011,6.011,0,0,0,1-1.958.206.206,0,0,0-.22-.142,2.017,2.017,0,0,0-.579.158l-.011,0-.124.045a2.892,2.892,0,0,1-.948.207,1.226,1.226,0,0,1-.987-.468,6.88,6.88,0,0,1-.643-3.1c-.15-1.8-.306-3.658-1.3-3.658a.867.867,0,0,0-.091,0,1.412,1.412,0,0,1-.148.008,1.232,1.232,0,0,1-1.188-.966,3.181,3.181,0,0,1,.355-2.285,7.482,7.482,0,0,1,2.6-2.7A9.6,9.6,0,0,1,8,10.818c1.036-.087,1.721-.144,2.2-1,.656-1.172,1.139-1.73,2.105-1.73a7.623,7.623,0,0,1,2.6.7,22.778,22.778,0,0,0,7.594,1.728c1.9,0,3.262-.507,4.055-1.506a3.9,3.9,0,0,0,1.089-2.929c-.025-.6-.041-.991.947-1.586C30.6,3.281,39.026,0,40.857,0a21.651,21.651,0,0,1,6.437,2.144c1.951.939,5.382,2.867,6.437,5.218.907,2.021,1.662,3.06,2.606,3.586a7.172,7.172,0,0,0,3.525.512,66.746,66.746,0,0,1,8.387,1.773c5.956,1.444,13.368,3.242,16.957,3.242a3.634,3.634,0,0,0,1.829-.327,5.977,5.977,0,0,1,2.948-1.217c.923,0,1.574.614,2.177,2.052,1.02,2.49,14.758,8.483,20.624,11.043,5.148,2.226,17.317,4.132,23.668,4.132a14.313,14.313,0,0,0,3.111-.255l.38-.091a14.846,14.846,0,0,1,3-.56c1,0,1.575.468,2.971,1.6l.008.007c.18.146.374.3.584.471l.329.264c2.525,2.027,6.341,5.09,9.688,5.09a4.734,4.734,0,0,0,2.049-.446,9.065,9.065,0,0,1,3.915-.9,11.663,11.663,0,0,1,7.93,3.574,14.821,14.821,0,0,0,4.863,3.047,16.321,16.321,0,0,0,5.882,1.065,18.943,18.943,0,0,0,3.969-.431c.8-.169,1.592-.31,2.477-.464,2.422,3.511,4.765,5.45,6.964,5.764,2.022.282,2.558.795,2.7,1l0,0c.072.127.021.373-.148.712a18.3,18.3,0,0,1-1.005,1.693l-.035.058c-1.015,1.669-1.749,2.875-1.24,3.967a1.726,1.726,0,0,0,1.373.957,2.407,2.407,0,0,0,.3.019,4.377,4.377,0,0,0,2.571-1.2.356.356,0,0,1,.1-.074,21.891,21.891,0,0,0,7.578,5.252,28.611,28.611,0,0,0,3.262,1.031l.932.257c.737.2,1.432.4,1.569.43,0,4.564,2.787,5.962,5.126,6.331a17.709,17.709,0,0,0,2.608.276,3.369,3.369,0,0,0,1.709-.4l.05-.022a4.043,4.043,0,0,1,.882-.294,8.9,8.9,0,0,1,1.508-.274c.321,0,.406.132.577.394.085.114.168.248.264.4.072.116.144.234.227.358.967,1.659,2.587,4.435,5.027,4.883a4.159,4.159,0,0,0,.681.055,9.682,9.682,0,0,0,3.218-.766,6.963,6.963,0,0,1,1.8-.532.31.31,0,0,1,.111.016,3.435,3.435,0,0,1,.583.9l.03.061a2.1,2.1,0,0,0,2.029,1.4,4.74,4.74,0,0,0,1.012-.125,4.393,4.393,0,0,1,.947-.086,22.823,22.823,0,0,1,5.208.871,2.357,2.357,0,0,0,.678.1,1.945,1.945,0,0,0,.966-.251c.926-.537,1.222-1.655,1.564-2.949l.006-.021.054-.2.009-.033c.129-.481.262-.978.452-1.483a.439.439,0,0,0,.023-.058.43.43,0,0,1,.026-.065l.06.044a5.974,5.974,0,0,0,.847.546l.809.442c2.129,1.113,4.542,2.375,6.351,2.551.463.049.639.246,1.079.81a3.22,3.22,0,0,0,2.723,1.644c1.529,0,4.1.185,4.1,1.423a17.125,17.125,0,0,1-.122,1.721l0,.02c-.016.156-.032.313-.048.47-.243,2.265-.495,4.607,1.1,5.74a4.725,4.725,0,0,0,2.8.773,10.5,10.5,0,0,0,4.382-1.067.834.834,0,0,1,.315-.043,4.126,4.126,0,0,1,1.3.263c1.667.548,3.442,1.784,3.874,2.7a11.1,11.1,0,0,1,.515,1.2l0,.012c.34.853.662,1.658,1.565,1.979a1.82,1.82,0,0,0,.619.106,3.664,3.664,0,0,0,1.661-.526l.235-.139.019-.011c.3-.178.647-.381.973-.61l.062-.039a8.273,8.273,0,0,1,3.095-1.447.664.664,0,0,1,.4.111,17.435,17.435,0,0,1,1.348,1.178l.071.066c1.467,1.359,3.131,2.9,5.007,2.9a3.441,3.441,0,0,0,.366-.02c1.931-.2,3.04-.71,3.826-1.767a2.947,2.947,0,0,1,.506-.088l.083-.01a7.5,7.5,0,0,0,2.747-.712,7.589,7.589,0,0,1,3.331-.787c2.63,0,5.131,1.388,7.434,4.124a.815.815,0,0,1-.074.466c-.295.7-1.219.822-2.112.943-.965.131-1.963.266-2.179,1.119a6.669,6.669,0,0,0,.708,3.352,13.14,13.14,0,0,1,.934,3.4l.006.075a8.369,8.369,0,0,1-.224,3.56,7.831,7.831,0,0,1-3.264,3.727,109.273,109.273,0,0,1-10.753,5.341c-6.3,2.912-12.807,5.922-13.967,7.321-.2.245-.39.477-.571.7-1.626,2.02-2.607,3.24-7.4,3.593-5.373.422-22.882,3.068-25.554,4.295s-7.357,6.137-7.357,7.362c0,.954,1.11,1.417,2.183,1.866.3.125.61.255.883.391.722.362,1.065.71,1.049,1.064-.021.451-.646.919-1.858,1.39a11.735,11.735,0,0,1-3.27.713,5.936,5.936,0,0,0-2.665.71c-.774.493-7.614,7.859-14.938,16.086-8.667,9.736-14.314,16.492-15.1,18.073-.844,1.69-1.065,5.212-.607,9.663a37.7,37.7,0,0,0,2.446,10.583,7.5,7.5,0,0,0,4.408,4.168,8.973,8.973,0,0,1,3.979,3c1.026,1.387,1.4,2.212,1.215,2.677-.16.4-.732.5-1.395.617a6.078,6.078,0,0,0-1.464.387c-.333.147-.994.413-1.831.751-3.892,1.569-11.99,4.833-14.5,7-2.294,2-5.034,6.593-7.236,10.282l0,.006c-.718,1.2-1.4,2.34-1.957,3.209a19.182,19.182,0,0,1-3.413,3.618c-1.859,1.656-3.464,3.086-2.718,4.578a23.062,23.062,0,0,0,3.065,4.491s-.006,0-.013.005a22.017,22.017,0,0,1-5.539.78,13.582,13.582,0,0,1-2.222-.172,21.755,21.755,0,0,1-3.272-.88,12.542,12.542,0,0,0-3.89-.841,6.37,6.37,0,0,0-2.45.495,74.094,74.094,0,0,0-7.734,3.754c-3.567,2.018-5.916,3.851-6.98,5.448-.534.8-1.169,1.811-1.9,2.979-2.583,4.108-6.12,9.733-8.519,11.327l-.279.188c-1.348.908-2.161,1.456-2.8,1.456-.711,0-1.237-.686-2.017-2.037a9.511,9.511,0,0,0-7.088-4.167,3.249,3.249,0,0,0-2.918,1.492c-1.38,2.132-2.406,3-3.54,3a4.684,4.684,0,0,1-2.2-.744c-1.179-.649-10.426-2.554-18.687-4.12-9.848-1.867-18.8-3.372-21.777-3.66-1.557-.151-2.72-.221-3.658-.221-3.219,0-4.2.839-6.347,2.676a7.834,7.834,0,0,1-5.667,2.181,31.725,31.725,0,0,1-3.946-.34,17.131,17.131,0,0,0-2.231-.16,11.557,11.557,0,0,0-6,1.669,31.42,31.42,0,0,0-7.486,6.688C46.245,276.156,44.135,277.485,42.182,277.485ZM250.8,211.511a.321.321,0,0,1-.268-.174,3.19,3.19,0,0,0-1.512-.827c-.927-.335-1.978-.714-2.166-1.626,0-.018.018-1.82,1.544-2.135a1.35,1.35,0,0,0,1.076-1.06,1.962,1.962,0,0,1,1.377-1.394,12.514,12.514,0,0,0,1.325-.584,7.8,7.8,0,0,1,3.087-1.011,2.185,2.185,0,0,1,2.013,1.276,2.226,2.226,0,0,1,.3,1.8c-.317.949-1.506,1.485-2.555,1.958a11.182,11.182,0,0,0-1.133.56,7.507,7.507,0,0,0-1.83,1.957C251.56,210.927,251.127,211.511,250.8,211.511Zm48.353-10.527h0c-.7,0-1.275-.962-1.735-1.735-.105-.176-.2-.339-.292-.476-.613-.932-.613-.932-3.065-1.227A4.574,4.574,0,0,1,291.3,196.4a3.448,3.448,0,0,1-.919-2.539,3.764,3.764,0,0,0-1.034-2.369,3.124,3.124,0,0,0-2.162-1.165,1.69,1.69,0,0,0-1.415.786,3.028,3.028,0,0,1-2.358,1.395,1.773,1.773,0,0,1-1.342-.582,2.567,2.567,0,0,1-.566-1.745v-2.749c3.805-2.868,12.279-8.3,15.621-8.908a9.907,9.907,0,0,1,1.764-.186c1.993,0,2.66.968,3.14,2.64.578,2.012,2.063,4.177,3.955,4.177a2.735,2.735,0,0,0,.95-.177,2.83,2.83,0,0,1,1.009-.188,2.931,2.931,0,0,1,2.616,1.643,2.021,2.021,0,0,1-.265,2.226,13.924,13.924,0,0,1-1.8,1.657c-1.528,1.261-3.107,2.565-3.107,4.478,0,1.991-2.277,3.531-3.94,4.656a11.715,11.715,0,0,0-1.554,1.16A1.075,1.075,0,0,1,299.154,200.984Zm33.789-16.165h0a3,3,0,0,1-1.8-.77c-.156-.131-.314-.266-.475-.4l-.011-.009c-1.641-1.4-3.5-2.994-6.328-2.994-.178,0-.361.007-.543.02-.123.01-.244.015-.359.015a1.954,1.954,0,0,1-2.2-1.7c-.224-1.346.5-3.041,1.037-3.223.084-.026.184-.06.3-.1a11.648,11.648,0,0,1,3.67-.73,5.437,5.437,0,0,1,2.455.535c.387.194.768.365,1.137.53,1.944.872,3.622,1.624,4.406,4.992.446,1.966.12,2.9-.232,3.345A1.3,1.3,0,0,1,332.943,184.819Z" transform="translate(0 326.915)" fill="#131630"/>
    <path id="Fill_3" data-name="Fill 3" data-country="netherlands" d="M80.707,9.034a13.482,13.482,0,0,1-3.164-4.741,12.474,12.474,0,0,1-1.226-1.985c-2.452-4.69-5.3-.812-15.523-.613-10.226.221-11.036,3.067-14.3,6.135-3.286,3.07-1.03,4.1-1.03,7.98,0,3.9-.613,4.294,1.226,4.712s2.452-.2,2.035,3.487c-.392,3.681-1.005,3.067-3.679,6.53-2.649,3.485-5.1,4.1-6.744,5.129-1.619,1.009-.2-3.067-.2-6.751s2.035-2.258,4.1-3.681c2.035-1.448,1.226-2.061-1.226-2.454-2.452-.42-2.256-.616-2.869-5.131-.613-4.493-2.452.221-4.709-2.037-2.232-2.26-.613-3.487,1.447-5.107,2.035-1.644.2-3.291-1.643-2.064s-2.649,2.874-2.452,4.1-1.839,10.238-3.679,18C25.235,38.32,19.521,42.2,17.068,45.264S14.2,46.3,14,49.363c-.221,3.067-3.065,3.681-5.125,5.1-2.035,1.448.221,2.871-.613,4.294C7.455,60.209,3.58,58.369.907,60.6-1.741,62.86,4.586,64.9,2.354,65.314A22.377,22.377,0,0,0,0,66.025v.022c.294,3.315.956,3.757.981,3.779.27-.022,1.1-.881,1.373-1.151a3.254,3.254,0,0,1,3.458-.736A5.135,5.135,0,0,1,9.27,71.866c.54.12,3.016-1.178,4.194-1.791.49-.27.956-.515,1.422-.739a21.678,21.678,0,0,0,1.913-1.1,5.542,5.542,0,0,1,4-1.129,1.946,1.946,0,0,1,.172-1.671c.858-1.274,2.6-.908,4-.589a3.847,3.847,0,0,0,2.7-.123c.76-.341,2.06-.93,3.139.123a2.392,2.392,0,0,0,2.55.908,4.862,4.862,0,0,0,.981-.341c1.57-.69,2.256.145,2.967,1.3a5.759,5.759,0,0,1,.883,2.086,5.445,5.445,0,0,0,.785,1.816c.736,1.252,1.643,1.274,4.022,1.053a10.041,10.041,0,0,0,1.226-.172c1.962-.341,2.33.567,2.82,2.211.123.393.368.491,1.52.761a6.626,6.626,0,0,1,3.507,1.644c1.471,1.472.956,3.509.049,5.423-.294.613-.613,1.227-.932,1.813-.417.81-.834,1.573-1.1,2.233a14.144,14.144,0,0,1-1.055,2.187c-.564.979-.589,1.055-.245,1.691.368.638,1.741.763,2.869.861a8.49,8.49,0,0,1,1.937.319,7.081,7.081,0,0,0,.368-.763,12.336,12.336,0,0,1,1.373-2.4c.27-.346-.368-1.006-1.52-2.061a9.6,9.6,0,0,1-1.4-1.423,2.326,2.326,0,0,1-.343-1.914,2.644,2.644,0,0,1,.172-.469,6.57,6.57,0,0,1,3.114-2.454c.417-.221.49-.488.564-1.887a14.337,14.337,0,0,1,.2-1.963,8.26,8.26,0,0,1,1.1-2.6,10.062,10.062,0,0,0,1.545-4.439c.245-2.38-1.692-5.671-3.09-8.049a29.4,29.4,0,0,1-1.52-2.8,3.525,3.525,0,0,1,.27-3.387c.981-1.475,3.164-2.4,5.567-2.4a5.475,5.475,0,0,1,3.85,1.6c.515.442.638.515.76.464.515-.12,1.079-.294,1.717-.491a43.854,43.854,0,0,1,5.3-1.35,1.573,1.573,0,0,0,.858-.317,7.009,7.009,0,0,0-1.5-1.328,2.138,2.138,0,0,1-1.226-2.012c.049-1.421,1.619-2.3,3.384-3.19,1.57-.783,4.1-4.881,4.684-6.82a1.418,1.418,0,0,0-.147-1.178,1.759,1.759,0,0,0-.785-.739c-.123.025-.441.049-.834.1-1.864.221-3.629.341-4.758-.221-1.888-.933-1.1-3.978-.343-6.925.123-.439.221-.856.294-1.178a2.324,2.324,0,0,1,1.1-1.6c1.03-.589,2.207-.172,3.58.319a15.673,15.673,0,0,0,1.717.54c.294.074.49.123.638.15a16.6,16.6,0,0,0-.074-1.8l-.049-.562a9.138,9.138,0,0,1,2.281-6.582l.417-.537a10.224,10.224,0,0,0,.711-3.438,11.027,11.027,0,0,1,.589-3.094c.368-.881.417-1.006-1.447-2.4" transform="translate(341.785 46.879)" fill="#131630"/>
    <g id="Group_7" data-name="Group 7" data-country="italy" transform="translate(404.393 265.345)">
      <g id="Group_7-2" data-name="Group 7">
        <path id="Fill_5" data-name="Fill 5" d="M230.063,354.655a2.428,2.428,0,0,1-.731-.127,12.511,12.511,0,0,0-3.346-.269,21.358,21.358,0,0,1-7.4-.959,7.649,7.649,0,0,0-3.06-.52c-1.58,0-2.451-.006-4.3-4.094a11.063,11.063,0,0,0-5.544-5.4,15.747,15.747,0,0,0-6.4-1.486,7.382,7.382,0,0,0-1.543.142,2.229,2.229,0,0,1-.477.045c-1.654,0-5.428-1.244-9.848-3.248a60.322,60.322,0,0,1-11.108-6.293c-6.175-4.8-8.871-5.361-10.362-5.361a6.334,6.334,0,0,0-2.3.487l-.087.032a5.593,5.593,0,0,1-2,.455,5.7,5.7,0,0,1-2.737-.841,10.431,10.431,0,0,1-4.054-3.705,8.3,8.3,0,0,1-1.159-4.277c-.023-4.468,3.027-8.63,4.6-9.515a3.925,3.925,0,0,0,1.708-2.226c.168-.43.289-.74.517-.74.324,0,.865.622,2.066,2.376,1.1,1.606,2.217,2.42,3.323,2.42,1.63,0,2.979-1.879,3.42-3.646.49-1.958.978-2.685,1.8-2.685a2.5,2.5,0,0,1,.943.231,1.958,1.958,0,0,0,.709.136,3.587,3.587,0,0,0,1.526-.474,4.6,4.6,0,0,1,2.082-.594c1,0,1.549.84,2.135,1.729a5.175,5.175,0,0,0,1.838,1.952,1.954,1.954,0,0,0,.862.252,1.08,1.08,0,0,0,.436-.095l.047-.02.006,0a.647.647,0,0,1,.248-.072c.22,0,.468.233,1.147,1.46s2.313,1.891,4.6,1.891a12.8,12.8,0,0,0,6.141-1.572,5.84,5.84,0,0,1,3.205-.91,19.035,19.035,0,0,1,2.426.223,34.253,34.253,0,0,0,4.791.368,15.3,15.3,0,0,0,6.931-1.534,7.039,7.039,0,0,0,3.492-3.374,3.1,3.1,0,0,1,1.7-1.818,6.905,6.905,0,0,1,2.825-.464c.867,0,1.809.078,2.533.146.782.074,1.436.2,2.013.309a9.865,9.865,0,0,0,1.84.238c1.236,0,2.422-.514,4.093-1.773a18.866,18.866,0,0,1,7.675-3.361,5.46,5.46,0,0,1,1.336-.21,1.058,1.058,0,0,1,.992.413c.316.523.06,1.556-.782,3.158-1.205,2.271-2.356,4.335-3.372,6.156-4.058,7.273-6.505,11.66-5.53,16.544.207,1.044-.488,1.994-1.16,2.914s-1.286,1.76-1.024,2.64c.257.861,1.372,1.653,3.409,2.421,1.641.608,1.95,2.2,2.248,3.735a5.671,5.671,0,0,0,.818,2.4l.224.279.005.006c.7.863,1.414,1.755,1.3,2.761a3.464,3.464,0,0,1-1.529,2.181c-2.7,2.1-3.694,5.762-3.065,7.951a3.3,3.3,0,0,1-.115,2.758A1.175,1.175,0,0,1,230.063,354.655Zm16.232-44.722c-2.513,0-3.813-.942-4.089-2.964-.609-4.459-1.633-8.742-1.643-8.785a9.389,9.389,0,0,0,1.533.128c1.336,0,3.006-.307,3.372-1.772a26.113,26.113,0,0,1,.992-2.867c.755-1.953,1.536-3.973,1.264-5.305-.178-.883-1.107-1.389-1.926-1.836-.694-.378-1.293-.7-1.349-1.183-.037-.312.168-.665.627-1.079.4-.369.805-.754,1.193-1.126,1.615-1.55,3.14-3.014,4.538-3.014a1.921,1.921,0,0,1,.4.042,1.112,1.112,0,0,0,.245.026,3.632,3.632,0,0,0,2.107-1.034,6.138,6.138,0,0,0,1.721-2.436,3.113,3.113,0,0,0-1.008-3.7c-3.14-2.589-3.952-5.356-4.669-7.8l0-.015c-.079-.268-.153-.522-.231-.777-.181-.582-.359-1.325-.564-2.185-.737-3.087-1.746-7.313-4.145-9.079-2.6-1.894-3.122-3.757-3.987-6.843l0-.007c-.154-.55-.314-1.119-.5-1.739a27.049,27.049,0,0,0-2.863-6.222c-1.021-1.609-2.554-3.526-4.064-3.526a1.766,1.766,0,0,0-1.042.349c-2.836,2.014-2.262,3.058-2.256,3.068l-5.518-.418c.008-.02.842-1.988.427-2.762a.578.578,0,0,0-.427-.306,6.162,6.162,0,0,1-2.269-1.328,5.077,5.077,0,0,0-1.409-.905.854.854,0,0,0-.224-.032,1.177,1.177,0,0,0-.645.253l-.014.009a1.263,1.263,0,0,1-.7.262,1.178,1.178,0,0,1-.454-.1,16.885,16.885,0,0,1-3.286-2.65,33.495,33.495,0,0,0,1.226-4.908,21.6,21.6,0,0,0-2.627-5.084c-.824-1.3-2.844-4.329-3.791-4.329a.373.373,0,0,0-.1.014c-.448.122-1.6.474-3.048.92-3.222.989-7.633,2.344-8.209,2.344-.052,0-.084-.013-.094-.039-.049-.122.367-.522.895-1.029.848-.815,2.009-1.931,2.02-2.647a.517.517,0,0,0-.148-.383,6.628,6.628,0,0,1-.851-1.2c-.734-1.2-1.648-2.686-3.418-2.686-.079,0-.161,0-.243.009-2.748.2-5.136.436-6.523,1.227a.746.746,0,0,1-.351.115c-.406,0-.44-.662-.484-1.5a4.49,4.49,0,0,0-.808-2.91,23.353,23.353,0,0,1-2.115-3.173c-1.777-2.917-4.209-6.912-5.856-7.06-.135-.011-.275-.016-.416-.016a10.487,10.487,0,0,0-4.685,1.464,6.636,6.636,0,0,0-5.218-2.1c-.3,0-.6.014-.913.042a9.546,9.546,0,0,0-4.675,1.691,6.572,6.572,0,0,0-1.456,1.377,21.887,21.887,0,0,0-1.385-3.034c-.794-1.419-2.049-3.177-3.519-3.494-2.79-.6-7.383-1.413-7.577-1.448-.026-.051-2.5-5.135-4.906-6.748a39.642,39.642,0,0,0-5.3-2.847,12.53,12.53,0,0,0-3.678-5.742,26.8,26.8,0,0,0-7.161-3.681c-.417-.134-.646-.94-.964-2.057-.633-2.226-1.589-5.59-4.971-7.76a16.933,16.933,0,0,0-8.7-2.706,3.97,3.97,0,0,0-2.733.669,1.51,1.51,0,0,1-1.15.543.753.753,0,0,1-.732-.382c-.165-.371.068-.934.656-1.585,1.663-1.864,1.328-2.353.333-3.8-.107-.155-.216-.315-.333-.491-.1-.146-.2-.308-.319-.482-1.313-1.993-3.758-5.7-5.812-6.267-2.247-.61-3.07-1.041-3.485-3.484-.371-2.2-1.514-3.407-3.216-3.407a4.471,4.471,0,0,0-1.078.142l-.081.02a9.847,9.847,0,0,1-2.078.387.965.965,0,0,1-.84-.324c-.3-.4-.259-1.206.128-2.538a17.113,17.113,0,0,0,.16-7.137,12.456,12.456,0,0,0-3.225-6.973c-3.475-3.3-3.456-4.745-3.065-7.975a16.971,16.971,0,0,0,.084-5.249,7.17,7.17,0,0,0-3.151-4.788c-3.674-2.511-6.411-4.184-7.832-4.184a1.19,1.19,0,0,0-.534.11,1.131,1.131,0,0,1-.507.1c-1.457,0-4.156-1.872-5.234-2.779-.177-.146-.457-.39-.81-.7-1.91-1.669-5.884-5.142-7.531-5.142a.732.732,0,0,0-.438.123,2.477,2.477,0,0,1-1.3.627c-.524,0-1-.48-1.959-1.436a9.956,9.956,0,0,0-6.7-2.528,11.111,11.111,0,0,0-5.782,1.693,13.566,13.566,0,0,0-4.164,3.614,6.741,6.741,0,0,0-1.065,2.523,2.4,2.4,0,0,1-.289.833.541.541,0,0,1-.467.22,2.447,2.447,0,0,1-.559-.1l-.041-.01a2.834,2.834,0,0,0-.679-.108c-.555,0-.974.318-1.319,1a10.559,10.559,0,0,0-.662,2.07c-.434,1.747-.927,3.727-3.213,5.292-2.9,2.009-9.611,3.813-13.341,4.343-.668-1.015-.735-1.4-.589-1.987a12.054,12.054,0,0,1,2.207-2.872,13.787,13.787,0,0,0,2.232-2.871,7.36,7.36,0,0,0,.5-3.589,3.238,3.238,0,0,0-1.778-2.743,2.9,2.9,0,0,0-1.166-.249,4.99,4.99,0,0,0-2.439.863l-.171.09-.02.011a8.908,8.908,0,0,1-1.525.685,5.18,5.18,0,0,1-1.458.225,2.2,2.2,0,0,1-1.878-.765c-.854-1.295-3.764-3.95-6.621-4.221-1.209-.1-1.225-.144-1.618-1.3l-.22-.564a7.285,7.285,0,0,1-.2-1.791,5.675,5.675,0,0,0-1.3-4.173l-.1-.1.01-.014a2.651,2.651,0,0,1,.236-.28,8.037,8.037,0,0,0,1.3-1.866c.976-1.9,1.249-2.306,1.716-2.527,1.435-.718,1.594-4.174,1.2-5.816-.562-2.37-2.125-2.626-2.771-2.626H5.738c-1.872,0-1.964-.028-2.477-.736a2.529,2.529,0,0,1,.074-1.472c.2-.847.559-2.424-.932-3.411A10.712,10.712,0,0,1,0,67.313a1.551,1.551,0,0,1,.176-.067L.2,67.239a4.2,4.2,0,0,1,1.37-.215A9.39,9.39,0,0,1,4,67.441l.071.019a6.314,6.314,0,0,0,1.631.3,1.527,1.527,0,0,0,1.582-1.035c.337-.8,1.442-1.892,1.908-1.892l.029,0a2.323,2.323,0,0,0,.363.03c1.687,0,2.134-2.02,2.374-3.105l.009-.041a5.021,5.021,0,0,1,.148-.736,2.622,2.622,0,0,1,.441-.343,3.057,3.057,0,0,0,1.594-2.184A2.582,2.582,0,0,0,13.1,56.368c-.522-.474-.971-.851-1.373-1.153l-.049-.039A4.017,4.017,0,0,1,10.129,53.3a8.129,8.129,0,0,1-.712-3.583c0-1.478-.459-2.437-2.967-3.583a2.406,2.406,0,0,1-1.57-1.791c.026-.553.966-.931,1.275-1.056a7.412,7.412,0,0,0,3.336-2.159c.107.137.236.288.372.447l0,.005c.083.1.171.2.262.308l.2.246a2.385,2.385,0,0,0,1.921.741c1.886,0,4.784-1.162,8.673-2.8.292-.121.576-.24.849-.355l.021-.009c.645-.271,1.255-.527,1.754-.716a2.5,2.5,0,0,1,.87-.182c.7,0,1.171.42,1.951,1.163a4.339,4.339,0,0,0,2.551,1.546,3.2,3.2,0,0,0,.327.017,3.123,3.123,0,0,0,2.6-1.731l.019-.029c.5-.727.844-1.181,1.569-1.35a2.963,2.963,0,0,0,1.987-1.275,2.469,2.469,0,0,0,.024-2.086,2.966,2.966,0,0,1-.122-.516l.005-.011c.044-.09.059-.12.46-.332a3.893,3.893,0,0,0,1.888-1.669c.949-1.656-.111-3-.745-3.809l-.015-.019c-.076-.114-.168-.229-.25-.331l-.069-.087.027-.012a9.145,9.145,0,0,0,3.111-2.049c.244-.244.465-.479.68-.706l0,0c.2-.208.381-.4.568-.59,1.148-1.221,1.736-1.815,2.526-1.964a17.9,17.9,0,0,1-.5,2.119l-.012.041-.047.173a11.5,11.5,0,0,0-.614,3.656c.2,2.176,2.161,4.1,5.837,5.718a6.591,6.591,0,0,0,2.551.491c1,.049,1.176.1,1.544.442a1.534,1.534,0,0,1-.385.319L51.769,36a3.8,3.8,0,0,0-1.3,1.227c-.889,1.459.49,2.43,1.153,2.9l.08.059a6.249,6.249,0,0,1,2,2.125,11.593,11.593,0,0,1,.694,1.61l0,.009.063.172.017.049a2.35,2.35,0,0,0,1.257,1.669,1.829,1.829,0,0,0,.614.122,4.363,4.363,0,0,0,1.874-.655l.014-.007c2.667-1.469,1.476-4.137.765-5.731L59,39.533a11.548,11.548,0,0,1-.588-1.423c-.146-.848,2.324-3.721,3.511-5.1l.045-.052.038-.045A31.32,31.32,0,0,0,64.2,30.135c1.188-1.867,1.105-4.238,1.033-6.331l0-.074a18.312,18.312,0,0,1-.025-2.332c.261.12.6.323.879.486l.176.1a11.154,11.154,0,0,0,1.055.589c.277.152.343.238.367,1.57a13.8,13.8,0,0,0,.442,3.387c.563,2.1,1.808,2.625,2.5,2.749a2.847,2.847,0,0,0,.473.04,4.973,4.973,0,0,0,3.722-2.42c.706-1.083,2.931-1.753,4.588-1.753a4.551,4.551,0,0,1,.587.035c.1.015.17.03.214.039a.355.355,0,0,0,.056.01,5.053,5.053,0,0,1,.209,1.4l.012.149.073.981a2.617,2.617,0,0,0,1.423,2.43,2.311,2.311,0,0,0,.98.213,5.028,5.028,0,0,0,2.8-1.145,2.034,2.034,0,0,0,.892-2.16,5.093,5.093,0,0,0-.818-1.791,4.8,4.8,0,0,1-.392-.662c.472-1.351.382-2.342-.27-2.945a1.661,1.661,0,0,0-1.162-.43,2.621,2.621,0,0,0-.726.111,14.8,14.8,0,0,1,.491-3.657,2.388,2.388,0,0,1,1.716-1.742c1.452,2.155,2.711,3.287,3.85,3.461a3.913,3.913,0,0,0,.672.06,3.525,3.525,0,0,0,3.377-3,3.335,3.335,0,0,0-1.481-3.423l-.015-.013-.028-.023a.938.938,0,0,0-.293-.2c-.015,0-.023.01-.023.029a12.089,12.089,0,0,1,1.177-3.976,3.639,3.639,0,0,0,.541.04,4.322,4.322,0,0,0,1.056-.139A14.189,14.189,0,0,1,96.9,9.345c.311,0,.468.065.541.225.067.135.142.3.22.491.6,1.384,1.376,2.626,4.345,2.626,3.9,0,4.713-2.466,5.249-4.1.11-.316.2-.682.295-1.036l.024-.093c.49-1.935.837-2.945,2.82-2.945.746,0,1.6.025,2.551.074l.094,0c1.2.043,2.446.087,3.72.087,5.3,0,7.43-.892,8.571-1.562l.809-.49.471-.273.041-.024A38.1,38.1,0,0,1,131.066,0a3.993,3.993,0,0,0-.319.293l-.032.032c-.619.619-1.554,1.556-1.047,2.545a1.987,1.987,0,0,1-.035.449c-.015.106-.03.215-.038.311l0,.011a3.264,3.264,0,0,0,.37,2.811,2.02,2.02,0,0,0,1.692.712h.613c.393,0,.883,0,1.2.024-.17,1.9,1.1,3.191,2.58,4.692l.044.045.02.02a11.6,11.6,0,0,0,8.342,3.808c1.845.107,6.12.515,9.638.859l.8.075c4.309.406,8.762.825,12.175,1.079-.11.25-.2.5-.275.712-.045.125-.082.23-.117.318a10.407,10.407,0,0,1-1.771,1.586l-.043.034-.008.006c-1.526,1.206-3.255,2.573-4.063,4.19a2.488,2.488,0,0,0-.1,2.209c.69,1.48,2.677,1.965,4.781,2.479l.157.042c.678.18,1.38.367,1.925.572-.089.077-.2.165-.292.243s-.187.152-.27.224a24.439,24.439,0,0,0-2.329,2.135,3.234,3.234,0,0,0-1.153,2.822c.267,1.176,1.4,1.645,2.4,2.059l.005,0,.263.113a5.433,5.433,0,0,1,1.306.7c.371.272.442.665.516,1.5a3.31,3.31,0,0,0,2.622,3.436A5.366,5.366,0,0,1,173.1,45a6.376,6.376,0,0,1,1.322,2.316,7.334,7.334,0,0,1-2.967,1.03,4.436,4.436,0,0,0-.276-3.468,3.065,3.065,0,0,0-2.127-1.293,4.918,4.918,0,0,0-.891-.091,2.441,2.441,0,0,0-2.257,1.455,3.342,3.342,0,0,1-1.56,1.483,1.766,1.766,0,0,1-.667.152c-.556,0-.891-.4-1.279-.855a3.566,3.566,0,0,0-2.763-1.53c-.185-.013-.368-.02-.545-.02-2.749,0-3.747,1.6-3.747,2.671,0,.087,0,.168,0,.244.014,1,.015,1.056-2.651,2.014a54.376,54.376,0,0,0-5.084,2.345,68.083,68.083,0,0,1-7.987,3.57,6.136,6.136,0,0,0-3.9,3.116,6.33,6.33,0,0,0,.22,5.08,18.9,18.9,0,0,0,4.533,6.128c.491.5.953.961,1.377,1.431,1.038,1.15.84,3.158.182,4.638-.531,1.194-1.3,1.936-2.007,1.937a1.013,1.013,0,0,1-.211-.022,4.579,4.579,0,0,1-1.56-.748,1.627,1.627,0,0,0-.723-.355c-.272,0-.441.32-.586,1.1a29.643,29.643,0,0,0,.291,7.733,30.772,30.772,0,0,0,3.8,11.285c4.455,7.211,6.9,9.017,9.392,9.6,2.771.635,6.71,3.205,9.2,5.324a46.8,46.8,0,0,0,5.149,3.7c1.606.991,3.787,2.173,5.057,2.173a1.185,1.185,0,0,0,.634-.151c2.017,1.629,8.159,14.306,9.809,20.245a48.653,48.653,0,0,0,4.727,10.792c1.743,2.957,4.431,6.75,7.338,8.031a16,16,0,0,1,6.046,4.844,6.911,6.911,0,0,0,2.317,2.1,7.422,7.422,0,0,0,1.945.454c.968.124,1.607.206,1.733,1.386a4.607,4.607,0,0,0,1.465,2.641,4.274,4.274,0,0,0,2.827,1.261,5.682,5.682,0,0,1,4.708,1.84c1.019,1.019,4.3,2.11,7.55,2.11a11.451,11.451,0,0,0,4.1-.687,9.134,9.134,0,0,1,3.393-.778,8.983,8.983,0,0,1,.913.057h.012a8.32,8.32,0,0,0,.866.056,6.055,6.055,0,0,0,1.978-.367c.477-.156,1.025-.369,1.606-.595a16.842,16.842,0,0,1,5.556-1.461,3.578,3.578,0,0,1,3.652,2.472c1.5,3.85.153,4.678-1.41,5.638a11.546,11.546,0,0,0-1.042.693c-.243.191-.552.4-.911.638-1.39.928-3.292,2.2-3.286,3.947,0,1.328,1.144,2.749,3.388,4.226,3.136,2.053,7.762,3.992,13.749,5.764a121.577,121.577,0,0,0,12.81,3.021c5.063.88,8.159,3.367,10.647,5.366.428.344.831.667,1.222.966a27.974,27.974,0,0,0,5.969,3.254,22.882,22.882,0,0,0,6.907,1.875c3.706.188,5.878,1.925,6.327,3.46.214.744,2.14,1.942,4.18,3.21a28.051,28.051,0,0,1,5.212,3.76c.186.2.379.409.583.627l.005.006a23.018,23.018,0,0,1,3.293,4.115,5.457,5.457,0,0,1,.632,4.847c-1.437,3.655-1.643,4.3-1.643,6.135,0,.335.027.7.053,1.058.069.932.134,1.81-.236,2.208a.709.709,0,0,1-.551.214,3.079,3.079,0,0,1-1.3-.414c-.848-.421-1.8-.794-2.719-1.154-2.189-.858-4.452-1.746-5.472-3.337a3.538,3.538,0,0,1-.455-2.87,1.8,1.8,0,0,0-.354-1.842,5.923,5.923,0,0,0-1.367-.937,3.2,3.2,0,0,1-2.115-2.744,2.868,2.868,0,0,0-.47-1.737c-.284-.3-.736-.41-1.67-.41-.493,0-1.1.03-1.863.068l-.9.043c-.682.031-1.391.047-2.106.047-4.709,0-8.505-.632-10.156-1.691a2.38,2.38,0,0,1-1.128-1.519,3.558,3.558,0,0,1,.516-2.359h0c-.018,0-1.742-.087-3.415-.087-.983,0-1.757.029-2.3.087-.848.09-2.2,1.063-3.623,2.6a11.9,11.9,0,0,0-2.7,4.147c-.078.288-.155.584-.236.9-.545,2.1-1.223,4.713-2.829,6.663-.871,1.069-.69,2.375-.5,3.758.22,1.582.447,3.217-.728,4.831-2.3,3.127-2.41,4.951-.418,6.97.969.97,2.587,1.244,4.152,1.509,1.734.294,3.373.572,4.015,1.754.882,1.624,2.9,2.485,4.851,3.318.761.325,1.48.632,2.114.977,2.266,1.246,2.842,1.655,2.452,3.681a9.223,9.223,0,0,0,.155,3.2,5.857,5.857,0,0,1,.041,2.939c-.248.576.237,1.287.8,2.109.805,1.178,1.807,2.645.844,4.222a3.276,3.276,0,0,1-3.077,1.595c-.361,0-.725-.027-1.045-.05l-.031,0c-.336-.025-.654-.049-.959-.049a2.836,2.836,0,0,0-1.019.151,28.736,28.736,0,0,0-4.862,2.709c-1.674,1.144-3.717,2.808-3.942,4.236-.393,2.68-.01,5.086.833,8.59.712,3.067-.394,5.281-3.482,6.969a13.14,13.14,0,0,0-5.1,5.718,26,26,0,0,0-1.839,6.332c-.065.32-.109.62-.151.91-.233,1.589-.388,2.639-3.332,2.992-.575.065-1.2.168-1.868.277A24.617,24.617,0,0,1,246.295,309.933ZM46.619,284.589h0c-.039-.078-.973-1.94-2.452-4.612a16.261,16.261,0,0,1-1.206-2.888,8.541,8.541,0,0,0-2.178-3.86l-.3-.3-.028-.027c-1.308-1.3-1.308-1.3-.981-3.05.107-.576.254-1.362.4-2.444a40.047,40.047,0,0,1,1.26-5.5c.668-2.377,1.244-4.43.873-5.859a3.108,3.108,0,0,1,.979-2.911,4.01,4.01,0,0,0,1.179-2.611c0-1.271-.745-1.3-1.535-1.341-.758-.035-1.542-.071-1.849-1.113a28.9,28.9,0,0,1-.589-5.84c.01.012,1.1,1.232,1.817,1.232.422,0,.636-.415.636-1.232a12.112,12.112,0,0,1,.281-2.329c.308-1.619.573-3.017-.919-4.715a6.7,6.7,0,0,1-1.9-3.417,14.671,14.671,0,0,0-.553-1.809,6.531,6.531,0,0,1-.354-2.207c-.039-1.212-.066-2.088-2.1-2.7a3.926,3.926,0,0,1-2.526-2.013,6.668,6.668,0,0,1-.474-3.588,23.364,23.364,0,0,1,1.479-5.737,13.066,13.066,0,0,0,6.11,1.613,13.75,13.75,0,0,0,7.538-2.478,37.716,37.716,0,0,0,7.491-6.792,19.031,19.031,0,0,1,3.769-3.446,5.166,5.166,0,0,1,2.771-.964c1.564,0,2.73,1.087,3.858,2.139a15.364,15.364,0,0,0,1.57,1.339c1.939,1.366,3.878,7.01,5.588,11.99a57.629,57.629,0,0,0,2.7,7.028,7.334,7.334,0,0,1,1.144,4.755,8.936,8.936,0,0,1-2.075,3.834A12.861,12.861,0,0,0,73.6,237.11a3.449,3.449,0,0,0,1.227,3.9c1.7,1.34,1.171,2.1.606,2.9a2.282,2.282,0,0,0-.606,1.716c.16,1-.659,7.923-1.451,14.619-.667,5.644-1.3,10.973-1.3,12.375,0,2.08-.85,3.372-2.217,3.373a4.528,4.528,0,0,1-2.688-1.214c-.442-.351-.881-.724-1.306-1.086-1.632-1.388-3.172-2.7-4.752-2.7a3.743,3.743,0,0,0-2.844,1.625,4.135,4.135,0,0,0-.928,4.47c.285.972.51,1.74-.617,2.6l-.523.389c-2.035,1.514-4.138,3.079-5.4,3.079a1.1,1.1,0,0,1-.5-.106,1.124,1.124,0,0,0-.507-.11c-1.262,0-3.093,1.588-3.17,1.655ZM92.927,150.528h0a23.37,23.37,0,0,0-3.908-.4,9.778,9.778,0,0,0-1.317.08,3.278,3.278,0,0,1-.483.037,2.463,2.463,0,0,1-2.288-1.558,4.4,4.4,0,0,1,3.091-2.16,33.384,33.384,0,0,0,4.907-1.227v5.226Z" fill="#131630"/>
      </g>
    </g>
    <g id="Group_10" data-name="Group 10" data-country="germany" transform="translate(396.228)">
      <g id="Group_10-2" data-name="Group 10" >
        <path id="Fill_8" data-name="Fill 8" d="M193.11,119.774a13.579,13.579,0,0,0-.564,2.012l-.123.81c-.956,5.6-1.937,8.736-2.869,9.325-1.278.81-1.4.613-1.766.174a4.869,4.869,0,0,1-.294-1.2c-.2-1.325-.542-3.337-2.381-4.245a9.691,9.691,0,0,0-5.246-1.374c-1.817,0-2.921.515-3.24,1.521-.439,1.4,1.03,2.432,1.52,2.773.515.344,1.081.69,1.6,1.006.169.1.392.221.589.344a11.673,11.673,0,0,1-1.253.368c-1.52.442-2.845.812-3.6,1.767a5.218,5.218,0,0,1-1.226.393c-1.447.368-3.6.933-4.341,3.092-.515,1.571-.836,1.62-3.016,1.423-.37-.025-.711-.074-1.008-.123a3.593,3.593,0,0,0-2.818.368,3.214,3.214,0,0,0-.981,2.307,9.659,9.659,0,0,1-.174,1.35c-.145-.025-.341-.074-.711-.172-1.91-.589-3.014.957-3.725,1.988-.49.69-.956,1.35-1.52,1.448l-.515.1c-2.013.371-4.488.81-4.39,3.19a6,6,0,0,1-.932-.2A10.271,10.271,0,0,0,141,150.989a13.6,13.6,0,0,0-3.041,4.834,5.942,5.942,0,0,0-2.21-2.771,2.7,2.7,0,0,0-3.58.243,3.188,3.188,0,0,0,.123,4c.468.638,1.1,1.35,1.717,2.037A12.256,12.256,0,0,1,136,161.86c.441,1.3,1.937,2.8,3.529,4.344l.861.834a10.667,10.667,0,0,0,1.447,1.178c.365.272,1.055.788,1.1.984,0,0,0,.292-.711,1.031a14.228,14.228,0,0,1-1.741,1.494,2.04,2.04,0,0,0-1.032,1.475,2.082,2.082,0,0,0,.885,1.593l.439.444a29,29,0,0,1,3.019,4.734,33.939,33.939,0,0,0,3.065,4.81l.515.564c1.4,1.62,2.5,2.9,5,3.117a4.209,4.209,0,0,1,3.482,2.748c1.03,2.334,3.21,4.81,5.493,4.81h.025a5.645,5.645,0,0,1,.981,1.644c.684,1.448,1.668,3.46,3.652,3.043.37-.074.738-.147,1.057-.218,1.422-.346,1.447-.321,1.788.145a35.483,35.483,0,0,0,4.1,5.031,6.134,6.134,0,0,0,.272,3.387c.319.982.319,1.156,0,1.5-.417.491-2.406.393-3.58.319-1.989-.123-4.466-.27-4.684,1.816a8.315,8.315,0,0,0,.074,1.939,4.831,4.831,0,0,1-.885,4.025,4.151,4.151,0,0,1-3.088,1.892,11.489,11.489,0,0,0-2.992.979c-2.134,1.08-7.384,4.739-7.872,6.969a1.667,1.667,0,0,0,.319,1.45c.221.292.66.933,1.226,1.715a37.561,37.561,0,0,0,4.316,5.521,11.3,11.3,0,0,1-.613,2.184,5.842,5.842,0,0,0-.515,1.865,1.9,1.9,0,0,0,1.619,1.84,3.158,3.158,0,0,1,1.077.54c.983.834,1.2,2.012.665,3.558a15.62,15.62,0,0,0-.54,1.988c-.049.245-.1.54-.147.761-.049-.022-.076-.022-.1-.049a8.286,8.286,0,0,1-2.673-2.552l-.319-.442c-.174-.221-.051-.785.047-1.252.174-.933.542-2.822-1.493-3.507a.67.67,0,0,0-.221-.052c-2.207-.712-3.485-.27-5.174,1.644-.174.2-.272.27-.294.319a4.7,4.7,0,0,1-.591-.587,4.748,4.748,0,0,0-.392-.42c-1.03-1.031-2.649-1-4.534-.982l-1.03.025a3.008,3.008,0,0,0-2.232.785,2.5,2.5,0,0,0-.638,1.6,4.2,4.2,0,0,0,0,.785c-.221.025-.515.025-.711.025-.49,0-1.005.027-1.5.074-.684.123-2.474.319-4.292.515-1.861.2-3.75.417-4.488.515-1.567.221-2.035.908-2.256,1.892a2.713,2.713,0,0,1-.145.515,1.739,1.739,0,0,1-.248.515c0,.022-.221.145-1.273.145a3.853,3.853,0,0,0-3.656,1.99,3.581,3.581,0,0,1-.365.515c-.172.218-.368.488-.542.758-.12.172-.294.442-.439.613a2.068,2.068,0,0,0-2.823-.172,1.99,1.99,0,0,1-.856.417,1.612,1.612,0,0,1-2.062-.785c-.589-1.178-2.035-3.166-3.458-3.509a7.072,7.072,0,0,1-.665-.319c-1.643-.783-4.709-2.258-6.891-.736-.493.368-1.081.172-1.864-.145a1.849,1.849,0,0,0-2.087.047,1.759,1.759,0,0,0-.417,1.794,13.522,13.522,0,0,0,.564,1.84c.319.832.638,1.789.417,2.108a16.5,16.5,0,0,1-3.041,3.632c0-.12-.025-.294-.025-.491a2.434,2.434,0,0,0-2.21-2.7,3.988,3.988,0,0,0-.684-.1h-.1a3.523,3.523,0,0,0-1.03-2.356,10.459,10.459,0,0,0-4.662-3.193,5.628,5.628,0,0,1-1.251-.564,2.99,2.99,0,0,0-2.43-.564,2.025,2.025,0,0,0-1.226,1.227,7.7,7.7,0,0,1-.736,1.227c-.248.393-.49.81-.736,1.254-.711-.613-1.594-1.377-2.256-2.064-1.643-1.644-6.646-4.221-9.147-4.442-.441-.025-.956-.047-1.5-.074-1.79-.049-4.022-.123-4.684-1.325-1.594-2.969-5.591-3.607-8.313-2.38a4.206,4.206,0,0,0-2.55,2.945c-.221,1.006-.1,2.577,1.471,4.442a6.652,6.652,0,0,1-3.041-.933c-2.5-1.742-4.537-1.546-7.038.712-.662.613-1.619.294-2.967-.221a3.924,3.924,0,0,0-2.722-.439,7.388,7.388,0,0,1-3.335-.1,11.959,11.959,0,0,1-.687-10.648c.515-1.622.883-2.8.392-3.779-.294-.591-.221-.935,1.03-3.634a67.7,67.7,0,0,0,3.335-8.344,18.1,18.1,0,0,0,.515-6.258c-.025-.393-.049-.761-.049-.957.221-.933,3.556-3.926,5.788-5.4,2.084-1.4,3.875-5.693,3.065-7.31-.736-1.5-6.3-4.174-9.245-3.733-2.06.319-3.311-.393-5.4-3.016a3.7,3.7,0,0,0-2.5-1.72,3.307,3.307,0,0,0-2.354,1.107,3.221,3.221,0,0,1-1.153.807c-1.324.393-3.924.223-4.807-.491-.172-.147-.172-.218-.172-.27a2.454,2.454,0,0,0-.981-2.552c-.981-.589-2.33-.344-4.194.834-.294.172-.589.368-.834.491A3.559,3.559,0,0,1,15.3,192a16.606,16.606,0,0,0-1.79-3.436,14.474,14.474,0,0,1-1.888-3.656c-.711-2.871-2.7-3.043-4.39-2.9.074-2.4,1.594-4.491,2.649-5.939a9.817,9.817,0,0,0,1.079-1.642c1.153-2.677-.392-3.413-3.482-4.861-2.7-1.274-4.537-5.669-4.709-9.249a5.269,5.269,0,0,0,1.52-2.871c.147-.69,1.373-1.325,2.305-1.818a6.79,6.79,0,0,0,1.643-1.055c1.005-1,.785-2.994.049-6.307l-.123-.537c-.245-1.2-1.4-1.647-2.33-1.966-.27-.123-.613-.245-.858-.368a5.094,5.094,0,0,1,.49-.515c.515-.513,1.153-1.126.785-1.988l-.343-.81H5.1a15.124,15.124,0,0,1-2.526-2.525c-.392-.444-.76-.861-1.1-1.227.1-.174.172-.371.27-.542a9.469,9.469,0,0,1,1.079-1.939c1.717-2.231-.589-4.267-1.839-5.4-.392-.346-.809-.712-.981-.861.025-.123.294-.515,1.986-1.374,1.79-.883,1.864-2.574,1.937-3.951a13.23,13.23,0,0,1,.147-1.62A6.749,6.749,0,0,1,4.9,120.78a12.47,12.47,0,0,0,1.839-5.4c.343-3.19-1.741-6.7-3.409-9.546-.589-1.006-1.1-1.89-1.373-2.5a1.065,1.065,0,0,1,.049-1.055c.515-.785,2.011-1.325,3.531-1.325A3.15,3.15,0,0,1,7.8,101.958a3.2,3.2,0,0,0,2.943,1.006c.54-.147,1.153-.344,1.839-.54a44.862,44.862,0,0,1,5.027-1.3c2.035-.368,2.624-1.374,2.771-2.135.343-1.791-1.471-3.264-2.379-3.9a11.531,11.531,0,0,1,1.766-1.028c2.477-1.227,5.3-6.135,5.959-8.294a3.886,3.886,0,0,0-.638-3.536,3.575,3.575,0,0,0-2.6-1.521,8.173,8.173,0,0,0-1.153.1,14.084,14.084,0,0,1-3.213.1,17.314,17.314,0,0,1,.76-4.2c.1-.417.2-.81.294-1.2a12.191,12.191,0,0,1,1.5.442,17.939,17.939,0,0,0,1.937.638,3.276,3.276,0,0,0,2.894-.245c.907-.761.834-1.988.711-3.978l-.049-.54a6.764,6.764,0,0,1,1.79-4.957l.441-.589c.785-1.082.981-2.874,1.153-4.591a10.548,10.548,0,0,1,.417-2.38c.932-2.187.441-3.34-2.232-5.355-.907-.685-2.035-2.746-3.016-5.153,0-.025-.025-.025-.025-.047-.564-3.168-.441-5.941,4.144-8.152,4.684-2.233,10.815-1.227,13.488-1.62,2.649-.417,3.262,0,4.071,1.84a9.818,9.818,0,0,1,.221,5.917c-.417,1.644,1.226,3.681,2.649,2.061,1.422-1.644-.2-3.9.417-5.328s1.619-.81,3.262-.2,1.839.2,1.839-2.871,1.03-9.2,4.9-6.137a5.928,5.928,0,0,0,8.166-.417c.613-.81-4.684-.2-5.3-3.266s3.262-2.037,2.232-4.1c-1.005-2.037-2.845-1.62-3.065-2.65-.2-1.031,1.03-3.877,1.03-4.491s-4.709,3.264-4.9-.613c-.2-3.9,8.387-4.515,6.94-7.166-1.422-2.65-5.714-4.712-6.523-8.785A22.957,22.957,0,0,1,57.949,0a5.223,5.223,0,0,0,1.4.1c2.992-.172,6.253-.2,7.946,1.178,2.526,2.012,5.371,2.429,6.965,1.08a3.723,3.723,0,0,1,.54-.12,2.042,2.042,0,0,1,.417-.027h.343a45.791,45.791,0,0,1,7.578.883.081.081,0,0,0,.049.025c1.692.687,2.918.81,2.676,2.5-.417,2.675-2.259,6.135,1.619,7.975,3.9,1.84,8.586,2.061,10.229,3.681,1.646,1.644,2.651,1.227,4.294,0s4.1.613,3.875-1.423c-.2-2.037,0-6.748,2.872-3.485,2.869,3.288,2.452,3.485-.2,3.485-2.676,0-2.06.417-2.256,3.681s-2.259,5.1-4.1,6.748-1.226,4.491,1.447,3.681c2.651-.81,4.294-2.258,7.36.417,3.068,2.653,3.264,2.236,4.49-1.448s2.035-5.3,4.488-5.3,9-2.258,12.066-7.362c3.065-5.129,4.1-4.1,6.94-3.681,2.869.393,5.935.2,7.357,1.84,1.447,1.62,3.065,1.62,3.286-.613.2-2.258-2.256-1.448-1.226-4.908,1.005-3.485,2.035-7.362,3.458-4.1,1.447,3.264,2.452,3.067,4.1,2.871,1.643-.221,2.256,1.227,1.226,3.067s.417,1.84,1.422,3.264c1.03,1.423,2.452,3.264-1.005,2.454-3.482-.81-5.322-2.258-4.9,1.227.392,3.485-.221,6.748,2.232,5.521s5.125-3.877,8.191,0a16.786,16.786,0,0,0,5.4,4.567c1.15,3.73,2.747,9.276,4.044,13.745,1.131,3.855,2.035,6.972,2.259,7.659.488,1.4-.419,6.827-.981,8.125-.147.368-.834.837-1.422,1.254a5.363,5.363,0,0,0-2.308,2.577c-.464,1.669-1.03,4.663.613,5.988.885.712,6.771,5.134,8.755,6.263a3.618,3.618,0,0,1,1.572,2.184,2.133,2.133,0,0,1,0,1.448,2.251,2.251,0,0,1-.64.712,2.37,2.37,0,0,0-.907,2.849c.1.393.174.834.248,1.325.267,1.89.638,4.221,2.6,4.515.444.049,1.008,1.423,1.008,2.454a5.038,5.038,0,0,0,.733,2.258c.319.567.64,1.153.542,1.5a5.9,5.9,0,0,0-.074,2.282c.123,1.2.145,1.988-.392,2.454a3.728,3.728,0,0,0-1.52,2.969,2.888,2.888,0,0,0,1.2,2.209c.785.589,2.526,3.117,2.18,4.049-.463,1.254-.954,2.528-.267,3.632a2.675,2.675,0,0,0,2.158,1.129c2.107.221,2.6.81,2.818,1.89a10.576,10.576,0,0,0,2.5,5.055c.221.245.243.344-.123,1.472" transform="translate(0 0)" fill="#131630"/>
      </g>
    </g>
    <path id="Fill_11" data-name="Fill 11" data-country="france" d="M317.2,339.964c-.732,0-1.394-.939-2.1-1.932l-.205-.29c-.768-1.062-2.241-1.6-3.664-2.129-1.44-.531-2.928-1.079-3.692-2.164a1.252,1.252,0,0,1-.29-1.05c.167-.644,1.022-1.05,1.848-1.443.762-.362,1.482-.7,1.482-1.188,0-1.214-5.754-1.834-5.812-1.841l2.77-5.815-.011,0a7.344,7.344,0,0,1-2.335.456,2.373,2.373,0,0,1-1.97-.781c-.756-.954.335-2.231,1.39-3.466a5.994,5.994,0,0,0,1.381-2.056c.162-.772-1.177-1.7-2.594-2.686-1.366-.949-2.779-1.93-2.924-2.835a.775.775,0,0,1,.109-.647.937.937,0,0,1,.754-.227c.227,0,.482.024.752.048l.045,0c.313.029.595.053.875.053a1.921,1.921,0,0,0,1.438-.458.817.817,0,0,0,.246-.687c-.125-1.263-2.672-2.977-2.7-2.994a.151.151,0,0,1,.011-.023c.312-.615,1.456-2.827,3.079-5.5,1.095-1.852,3.478-2.719,5.581-3.484a12.277,12.277,0,0,0,3.591-1.719,4.529,4.529,0,0,1,3.052-1.2,8.925,8.925,0,0,1,3.4.884,1.034,1.034,0,0,0,.4.095.469.469,0,0,0,.367-.161c.438-.494.248-2.074.046-3.748a16.856,16.856,0,0,1-.2-3.868q.031-.229.059-.439v-.007c.245-1.836.346-2.6,1.779-2.6.692,0,1.262.755,1.646,2.184a17.236,17.236,0,0,1,.488,4.245,18.568,18.568,0,0,1-.306,2.8c-.322,2.02-.627,3.928.625,4.562,1.766.9,1.877,9.041,1.544,13.2a30.954,30.954,0,0,1-1.9,6.645c-.917,2.552-1.782,4.962-1.782,6.532,0,2.349-.91,4.708-2.288,8.28l0,.005c-.417,1.08-.889,2.3-1.388,3.665C318.851,338.767,318.023,339.964,317.2,339.964ZM147,297.475c-.929,0-2.236-1.2-3.287-2.157l-.167-.153a18.5,18.5,0,0,0-1.544-1.35,3,3,0,0,0-1.824-.6c-1.579,0-3.269,1.083-4.5,1.873-.383.24-.779.487-1.128.687a.467.467,0,0,0-.119.066.572.572,0,0,1-.053.035c-.035-.073-.066-.147-.094-.213s-.064-.154-.1-.231a14.121,14.121,0,0,0-.589-1.4A9.209,9.209,0,0,0,129.3,290.5a3.353,3.353,0,0,0,.1-3.165c-.739-1.508-2.549-2.464-3.936-3a16.057,16.057,0,0,0-5.481-1.049c-.678-1.726-2.8-2.6-6.3-2.6-.245,0-.317-.043-.76-.638a3.816,3.816,0,0,0-2.8-1.816c-1.315-.113-3.6-1.279-5.444-2.282-.149-.074-.291-.15-.417-.217-.17-.091-.316-.169-.442-.225a3.034,3.034,0,0,1-.506-.34l-.132-.1-.01-.007a2.75,2.75,0,0,0-1.608-.7,1.72,1.72,0,0,0-.491.073,2.814,2.814,0,0,0-1.618,1.963,17.914,17.914,0,0,0-.564,1.914c-.021.074-.042.153-.064.233a8.491,8.491,0,0,1-.353,1.116,24.251,24.251,0,0,0-5.679-.922,6.822,6.822,0,0,0-1.458.137,2.379,2.379,0,0,0-.294.074v-.05a6.464,6.464,0,0,0-.956-1.448,2.374,2.374,0,0,0-1.918-.863,8.176,8.176,0,0,0-2.692.667,7.624,7.624,0,0,1-2.337.614,1.59,1.59,0,0,1-.286-.024c-1.343-.225-2.705-2.576-3.36-3.706-.169-.26-.307-.492-.429-.7l-.111-.185A2.915,2.915,0,0,0,76.35,271.8a10.6,10.6,0,0,0-2.175.327,7.092,7.092,0,0,0-1.213.421l-.162.069-.014.007a1.365,1.365,0,0,1-.7.138,15.74,15.74,0,0,1-2.16-.242c-2.68-.419-3.041-2.208-3.041-3.9,0-1.856-2.081-2.428-4.285-3.034l-.032-.009-.261-.075a28.634,28.634,0,0,1-2.731-.882c-2.92-1.152-6.3-3.866-6.719-4.711a1.8,1.8,0,0,0-1.177-.982,1.783,1.783,0,0,0-.334-.032,2.291,2.291,0,0,0-1.309.474l.005-.013a.553.553,0,0,1,.093-.134c.362-.588.773-1.276,1.079-1.913a3.084,3.084,0,0,0,.122-2.945c-.62-1.192-2.1-1.938-4.512-2.282-1.3-.2-2.9-1.52-4.635-3.829a12.451,12.451,0,0,0,5.613-2.6,12.946,12.946,0,0,0,3.755-7.092c1.563-6.8,8.976-32.491,13.4-47.84l0-.01c1.994-6.91,3.435-11.9,3.563-12.469a7.208,7.208,0,0,1,.909-1.967c.7-1.2,1.367-2.341.317-3.138a14.383,14.383,0,0,0-1.391-.894c-.972-.57-1.675-.981-1.675-1.977a9.239,9.239,0,0,1,.22-1.6,7.258,7.258,0,0,0-.023-4.113,7.166,7.166,0,0,0-1.963-2.318c-.777-.7-1.448-1.3-1.391-1.815a.807.807,0,0,1,.484-.579.557.557,0,0,1,.275-.075c.776,0,1.611,1.683,2.348,3.167l.078.158c.767,1.548,1.492,3.009,2.129,3.009.26,0,.485-.242.688-.738a16.8,16.8,0,0,1,1.33-2.535,3.765,3.765,0,0,0,.509-4.017c-.181-.552-.322-1.119-.471-1.719a17.028,17.028,0,0,0-1.64-4.517,19.811,19.811,0,0,0-5.025-5.617c-5.647-4.538-6.266-5.842-7.2-7.817-.116-.245-.236-.5-.373-.772-.433-.868-.967-1.786-1.532-2.758a39.3,39.3,0,0,1-2.955-5.832c-.652-1.734.2-2.716,1.015-3.665.725-.84,1.411-1.634,1.02-2.887a15.671,15.671,0,0,1-.424-2.108c-.375-2.4-.8-5.129-4.064-6.677-2.036-.966-3.3-1.943-3.859-2.985a3.607,3.607,0,0,1-.015-3.151,3.34,3.34,0,0,0,.138-2.852c-.5-.789-1.715-1.247-3.816-1.442a16.551,16.551,0,0,1-6.7-2.123,22.67,22.67,0,0,1-6.391-5.657A30.806,30.806,0,0,0,20.6,89.4C17.434,87.58,14.347,86.4,12.742,86.4a7.072,7.072,0,0,0-2.738.7,4.881,4.881,0,0,1-1.748.5c-1.027,0-1.768-.91-2.479-3.042A12.484,12.484,0,0,0,1.637,79.18C.834,78.493.255,78,.361,77.648c.092-.3.678-.495,1.958-.642.956-.111,1.872-.189,2.681-.258,2.386-.2,4.107-.35,4.4-1.1.166-.428-.135-1.035-.945-1.909a15.506,15.506,0,0,0-4.033-2.777,15.159,15.159,0,0,1-2.968-1.9,3.229,3.229,0,0,1-1.19-2.68,12.7,12.7,0,0,0-.134-2.329c-.156-1.287-.29-2.4.387-3.323.741-1.012,2.414-1.688,5.265-2.127a70.509,70.509,0,0,1,10.094-1.024c2.813,0,4.46.472,5.037,1.442A3.081,3.081,0,0,0,23.853,60.4c.471,0,.974-.04,1.46-.078.5-.04,1.024-.081,1.53-.081,1.347,0,1.364-.156,1.434-.812a5.444,5.444,0,0,1,.6-2.059c.678-1.357,1.17-1.729,2.289-1.729.414,0,.912.049,1.541.111.661.065,1.484.146,2.5.2.668.029,1.252.031,1.768.033,2.957.011,3.751.014,6.006,5.071.663,1.487,1.2,2.852,1.667,4.056,1.165,2.98,1.934,4.948,3.234,4.948a1.814,1.814,0,0,0,.813-.219c.417-.209.92-.487,1.452-.781,1.906-1.054,4.517-2.5,6.346-2.5a2.078,2.078,0,0,1,1.619.628,3.547,3.547,0,0,0,2.657.735,27.715,27.715,0,0,0,3-.227l.182-.021a24.493,24.493,0,0,1,2.514-.206c.709,0,1.133.1,1.334.324a.532.532,0,0,1,.127.426c-.031.287-.078.553-.12.787-.108.61-.186,1.05.074,1.361.316.377,1.114.531,2.754.531.4,0,.846-.009,1.364-.029,1.821-.067,2.6-.136,2.744-.39.082-.15-.041-.359-.228-.677a4.459,4.459,0,0,1-.677-3.227c.106-.673.2-1.216.266-1.652a60.368,60.368,0,0,0,.764-7.133,38.427,38.427,0,0,0-2.036-14.528,34.194,34.194,0,0,1-1.19-6.041c-.149-1.4-.316-3.852.246-4.619a.475.475,0,0,1,.388-.222.935.935,0,0,1,.555.255c.212.175.422.355.644.546l.007.006c1.528,1.314,3.26,2.8,6.106,2.8a11.078,11.078,0,0,0,3.666-.7,8.207,8.207,0,0,1,2.554-.576c.594,0,.981.176,1.149.523.441.909-.718,2.775-1.472,3.734-1.122,1.452-1.1,1.5-.546,2.659.149.312.334.7.546,1.218A10.337,10.337,0,0,1,86,45.851c.106,1.38.2,2.572.912,2.572a2.216,2.216,0,0,0,1.24-.669,3.855,3.855,0,0,1,2.594-1.077,10.4,10.4,0,0,1,4.2,1.439c.824.4,1.755.856,2.793,1.282.451.184.913.375,1.4.577l.024.01c3.562,1.475,7.995,3.311,10.829,3.311a4.34,4.34,0,0,0,1.455-.217,24.294,24.294,0,0,0,6.523-3.681.136.136,0,0,0,.053-.127c-.032-.13-.342-.226-.77-.358a3.724,3.724,0,0,1-2.309-1.418,2.006,2.006,0,0,1-.039-1.581c.151-.451.3-.9.426-1.295.8-2.443,1.424-4.373,2.639-5.233a28.375,28.375,0,0,1,9.2-3.681,23.289,23.289,0,0,1,2.642-.179,36.441,36.441,0,0,0,11.015-1.676,14.63,14.63,0,0,0,5.292-3.205,12.42,12.42,0,0,0,3.343-5.983,96.632,96.632,0,0,0,2-11.211c.745-5.611,1.238-9.317,4.523-11.293C158.54.621,162.213.571,165.766.523A34.384,34.384,0,0,0,172.537,0c.318,2.45,1.143,6.8,3.114,8.417a5.625,5.625,0,0,1,1.581,2.616l.013.035.025.065c.385,1.012.864,2.271,2.256,2.463a3.938,3.938,0,0,0,.549.042,1.975,1.975,0,0,0,1.486-.607l.007-.006a3.059,3.059,0,0,1,1.661-.658,6.818,6.818,0,0,1,1.406-.183c1.158,0,1.492.57,1.9,1.509a15.568,15.568,0,0,1,.757,4.312q.014.168.028.325c.043.581.095,1.228.148,1.62.292,1.751,2.351,2.081,4.168,2.372l.05.008c.488.069,1,.145,1.4.245,2.727.664,2.6,2.214,2.551,2.8a3.226,3.226,0,0,0,.662,2.6,2.356,2.356,0,0,0,1.77.633c.266,0,.522-.02.8-.045s.543-.034.826-.034c.131,0,.254,0,.376.01,3.429.176,5.008.355,5.3.957a4.456,4.456,0,0,1,.368,3.9,3.436,3.436,0,0,0,.27,3.237.371.371,0,0,0,.1.148,3.518,3.518,0,0,0-.49,3.879,2.138,2.138,0,0,0,1.871,1.021,2.905,2.905,0,0,0,.7-.09.617.617,0,0,1,.169-.022,3.384,3.384,0,0,1,1.277.464,6.92,6.92,0,0,0,3.138.876,5.264,5.264,0,0,0,.835-.067c.456-.091.887-.139,1.3-.186l.094-.011h.012c1.827-.219,4.328-.519,4.328-3.066a4.216,4.216,0,0,1,1.348-2.871,1.027,1.027,0,0,1,.442-.2c-.066.131-.132.3-.18.426l-.016.042a7.646,7.646,0,0,0-.564,2.059,6.6,6.6,0,0,0,.392,2.947l.051.183.007.025a7.33,7.33,0,0,1,.359,2.1,6.814,6.814,0,0,1-.245,1.669,2.752,2.752,0,0,0,.2,2.356,2.251,2.251,0,0,0,1.741.859c1.569.175,7.732,3.716,8.9,5.6a7.114,7.114,0,0,1,.858,2.255l.014.05a4.063,4.063,0,0,0,1.556,2.723,2.216,2.216,0,0,0,1.169.311,3.393,3.393,0,0,0,.842-.115c.493-.133,1.063-.326,1.667-.53l.007,0,.533-.18a21.337,21.337,0,0,1,3.262-.982,4.646,4.646,0,0,0,3.335,3.338,2.911,2.911,0,0,0,.609.063,7.018,7.018,0,0,0,3.339-1.267c.5-.275,1.277-.737,1.373-.809a2.742,2.742,0,0,1,.637.785l.036.054a3.4,3.4,0,0,0,2.917,1.841,4.079,4.079,0,0,0,.48-.029l.515-.046a11.631,11.631,0,0,1,1.322-.117c.8,0,.945.294,1.131,1.071a16.447,16.447,0,0,0,2.143,4.329l.04.064a14.358,14.358,0,0,1,1.52,2.822,3.03,3.03,0,0,0,1.595,2.209,1.813,1.813,0,0,0,.671.129,5.051,5.051,0,0,0,2.419-1.037,5.513,5.513,0,0,1,1.4-.688v.148a2.676,2.676,0,0,0,1.055,2.381,7.592,7.592,0,0,0,4.622,1.262,8.952,8.952,0,0,0,2.44-.3,5.537,5.537,0,0,0,2.065-1.312l.045-.04a3.707,3.707,0,0,0,.465-.467,3.061,3.061,0,0,1,.809.786c1.888,2.414,3.711,4.022,6.468,4.022a8.135,8.135,0,0,0,1.208-.095,2.923,2.923,0,0,1,.437-.031A13.432,13.432,0,0,1,293,79.8c-.023.828-.967,3.353-2.182,4.147-.069.046-6.89,4.751-6.89,7.362,0,.305.019.643.041,1.033l.008.145a16.24,16.24,0,0,1-.392,5.422,67.346,67.346,0,0,1-3.31,8.222c-1.219,2.634-1.775,3.836-.957,5.472a7.987,7.987,0,0,1-.46,1.915l-.03.1a14.137,14.137,0,0,0,.441,11.755,7.681,7.681,0,0,0-2.231,3.8,2.145,2.145,0,0,1-1.447,1.423,2.786,2.786,0,0,1-.8.116,3.96,3.96,0,0,1-2.384-.9,4.754,4.754,0,0,0-2.888-1.02,4.093,4.093,0,0,0-2.826,1.094,2.562,2.562,0,0,0-.539,3.387c.048.51-1.286,2.535-4.586,4.908-3.166,2.252-3.9,3.485-4.365,5.4-.118.449-1.919,1.1-2.6,1.349l-.077.028a6.878,6.878,0,0,0-1.79.807c-1.4,1.061-1.76,3.918-.809,6.5-.09.47-1.626,1.347-2.643,1.928l-.022.013-.254.145a14.891,14.891,0,0,0-3.8,2.6c-2.463,2.712-2.576,4.631-1.912,7.435.442,1.913.214,2.294-.881,4.12l-.418.714a4.42,4.42,0,0,0-.564,4.1c.522,1.22,1.743,2.038,3.63,2.43a4.908,4.908,0,0,0,1.035.122,2.5,2.5,0,0,0,1.613-.514c1.034-.808,1.084-2.243,1.128-3.509v-.027a17.149,17.149,0,0,1,.146-1.814c.269-1.886,1.073-3.067,2.207-3.24.106-.021.228-.043.357-.065.175-.031.368-.065.575-.107l.055-.01a31.746,31.746,0,0,1,4.866-.557,3.653,3.653,0,0,1,1.9.346c.557.364.272,3.329.151,4.595l0,.043-.008.1a15.906,15.906,0,0,0-.065,3.655c.292,1.653,1.954,3.5,4.1,5.743l.16.169c.434.457.879.926,1.139,1.23a4.368,4.368,0,0,1-2.747,2.111c-2.424.849-2.869,2.394-2.918,3.239a4.784,4.784,0,0,0,3.016,4.147c1.52.712,1.52.912,1.52,1.35a10.468,10.468,0,0,0,.932,4.588,6.362,6.362,0,0,0,2.33,2.847c.377.3.774.624,1.25,1.031a.563.563,0,0,1,.067.082.326.326,0,0,0,.031.04c-.061.049-.135.1-.207.158s-.148.111-.209.16a3.277,3.277,0,0,0-1.2,1.178,5.33,5.33,0,0,0-.392,1.4l-.006.024c-.072.315-.193.843-.289,1.154h-.024a3.779,3.779,0,0,0-2.306.966,7.337,7.337,0,0,0-1.643,1.9l-.26-.066c-.107-.027-.213-.053-.3-.078a11.081,11.081,0,0,0-3.143-.536,6.864,6.864,0,0,0-2.154.338,2.547,2.547,0,0,0-1.986,1.987c-.221,1.718,1.711,3.148,3.63,4.319a4.044,4.044,0,0,1-.148.957l0,.007a4.165,4.165,0,0,0,.345,3.4c1.17,1.621,2.35,1.747,3.889,1.747.189,0,.391,0,.6-.005h.81c.024,0,.073,0,.171.172a5.738,5.738,0,0,1,.049,3.755c-1.044.622-1.579,1.54-2.551,3.488a6.126,6.126,0,0,1-.942,1.33l-.015.017a3.492,3.492,0,0,0-.916,1.481,2.408,2.408,0,0,0,.868,2.273,3.589,3.589,0,0,1,.589,2.5v.006a7.708,7.708,0,0,0,.367,2.571l.172.515c.589,1.62,1.166,2.7,3.728,2.945,1.814.174,4.177,2.16,4.807,3.141a4.516,4.516,0,0,0,3.886,1.84,7.539,7.539,0,0,0,2.2-.343,10.881,10.881,0,0,0,2.148-.949l.059-.032a3.215,3.215,0,0,1,1.233-.535.535.535,0,0,1,.213.044c.388.169.525,1.792-.024,3.092a12.1,12.1,0,0,1-1.79,2.187c-1.216,1.331-2.474,2.708-2.771,3.923a3.828,3.828,0,0,0,.319,2.923c-.24.052-.374.116-.422.2s-.011.186.035.314c.1.272.235.644-.374,1.175a2.722,2.722,0,0,1-1.969.574,5.238,5.238,0,0,0-3.353,1.045,6.444,6.444,0,0,0-2.415,3.042c-.249.566-.429.975-.846,1.057a3.072,3.072,0,0,1-.556.04c-.35,0-.757-.03-1.189-.061l-.022,0c-.408-.029-.865-.062-1.269-.062a1.845,1.845,0,0,0-1.255.281c-.256.256-.23.764-.2,1.3.04.756.081,1.538-.633,1.766-.165.056-.37.119-.607.192l-.008,0c-1.491.459-4.266,1.313-5.516,3.094a2.682,2.682,0,0,0-.216,2.648c.223.716.415,1.333-.4,1.843A23.7,23.7,0,0,1,240.8,278.62a31.56,31.56,0,0,1-5.924-.582c-10.67-2.072-11.472-3.094-13.071-5.129a7.646,7.646,0,0,1-1.191-2.214c-.386-1-.641-1.663-1.874-1.663-.619,0-1.341.056-2.039.111s-1.434.112-2.066.112a2.669,2.669,0,0,1-1.83-.419c-.289-.3-.213-.919-.14-1.52s.149-1.216-.129-1.53a.744.744,0,0,0-.592-.217,3.221,3.221,0,0,0-.977.2,4.314,4.314,0,0,0-2.29,1.406,2.873,2.873,0,0,1-2.2,1.048,19.619,19.619,0,0,1-2.456.232,1.928,1.928,0,0,1-2.055-1.067,2.317,2.317,0,0,1-.242-1.034c-.026-.547-.045-.942-1.377-1.617a13.568,13.568,0,0,0-5.545-.921c-.719-.027-1.459-.054-2.228-.11-1.611-.1-1.915-1.147-2.21-2.156-.258-.885-.5-1.721-1.666-1.721-1.094,0-3.866,1.165-7.415,3.117a40.282,40.282,0,0,0-7.1,4.663,1.77,1.77,0,0,1-1.3.59,4.474,4.474,0,0,1-1.059-.18l-.094-.024a5.453,5.453,0,0,0-1.357-.2c-1.365,0-2.749.784-4.354,2.467a17.036,17.036,0,0,0-3.114,5.269,44.9,44.9,0,0,0-2.153,6.976c-1.094,4.822-1.375,9.136-.668,10.258a13.186,13.186,0,0,0,1.556,1.93l0,0h0l.23.249a9.875,9.875,0,0,0-8.461.2,5.845,5.845,0,0,1-1.9.459l-.064.008-.05.006a2.769,2.769,0,0,0-2.157.951c-.16.274-.428.732-2.158.908Z" transform="translate(148.084 122.302)" fill="#131630"/>
  </g>
</svg>
